<?xml version="1.0" encoding="UTF-8" standalone="no"?>
<!DOCTYPE svg PUBLIC "-//W3C//DTD SVG 1.1//EN" "http://www.w3.org/Graphics/SVG/1.1/DTD/svg11.dtd">
<svg width="100%" height="100%" viewBox="0 0 160 54" version="1.1" xmlns="http://www.w3.org/2000/svg" xmlns:xlink="http://www.w3.org/1999/xlink" xml:space="preserve" xmlns:serif="http://www.serif.com/" style="fill-rule:evenodd;clip-rule:evenodd;">
    <g transform="matrix(1.33333,0,0,1.33333,0,0)">
        <path d="M119.5,6C119.5,2.964 117.036,0.5 114,0.5L6,0.5C2.964,0.5 0.5,2.964 0.5,6L0.5,34C0.5,37.036 2.964,39.5 6,39.5L114,39.5C117.036,39.5 119.5,37.036 119.5,34L119.5,6Z" style="fill:rgb(61,219,134);"/>
        <path d="M119.5,6C119.5,2.964 117.036,0.5 114,0.5L6,0.5C2.964,0.5 0.5,2.964 0.5,6L0.5,34C0.5,37.036 2.964,39.5 6,39.5L114,39.5C117.036,39.5 119.5,37.036 119.5,34L119.5,6Z" style="fill:rgb(61,219,134);stroke:rgb(61,219,134);stroke-width:1px;"/>
        <g transform="matrix(0.750002,0,0,0.750002,-19.3612,4.44184)">
            <text x="72.846px" y="38.024px" style="font-family:'STHeitiSC-Medium', 'Heiti SC';font-size:12px;fill:white;">下載</text>
        </g>
        <g transform="matrix(1,0,0,1,8,7.99967)">
            <path d="M17.523,15.341C16.972,15.341 16.524,14.893 16.524,14.342C16.524,13.791 16.972,13.342 17.523,13.342C18.074,13.342 18.522,13.791 18.522,14.342C18.522,14.893 18.074,15.341 17.523,15.341M6.477,15.341C5.926,15.341 5.478,14.893 5.478,14.342C5.478,13.791 5.926,13.342 6.477,13.342C7.028,13.342 7.476,13.791 7.476,14.342C7.476,14.893 7.028,15.341 6.477,15.341M17.882,9.321L19.879,5.862C19.992,5.665 19.924,5.409 19.727,5.295C19.529,5.181 19.273,5.25 19.159,5.447L17.137,8.95C15.59,8.244 13.853,7.851 12,7.851C10.147,7.851 8.41,8.244 6.863,8.95L4.841,5.447C4.727,5.249 4.471,5.181 4.273,5.295C4.076,5.409 4.007,5.665 4.121,5.862L6.119,9.321C2.689,11.187 0.343,14.659 0,18.761L24,18.761C23.657,14.659 21.311,11.187 17.882,9.321" style="fill:white;fill-rule:nonzero;"/>
        </g>
        <g transform="matrix(1,0,0,1,35.9928,22.1144)">
            <g>
                <text x="0px" y="0px" style="font-family:'LucidaGrande', 'Lucida Grande', sans-serif;font-weight:500;font-size:16px;fill:white;">Android</text>
            </g>
        </g>
    </g>
</svg>
