<?xml version="1.0" encoding="UTF-8" standalone="no"?>
<!DOCTYPE svg PUBLIC "-//W3C//DTD SVG 1.1//EN" "http://www.w3.org/Graphics/SVG/1.1/DTD/svg11.dtd">
<svg width="100%" height="100%" viewBox="0 0 120 40" version="1.1" xmlns="http://www.w3.org/2000/svg" xmlns:xlink="http://www.w3.org/1999/xlink" xml:space="preserve" xmlns:serif="http://www.serif.com/" style="fill-rule:evenodd;clip-rule:evenodd;">
    <path d="M119.5,6C119.5,2.964 117.036,0.5 114,0.5L6,0.5C2.964,0.5 0.5,2.964 0.5,6L0.5,34C0.5,37.036 2.964,39.5 6,39.5L114,39.5C117.036,39.5 119.5,37.036 119.5,34L119.5,6Z" style="fill:rgb(61,219,134);"/>
    <path d="M119.5,6C119.5,2.964 117.036,0.5 114,0.5L6,0.5C2.964,0.5 0.5,2.964 0.5,6L0.5,34C0.5,37.036 2.964,39.5 6,39.5L114,39.5C117.036,39.5 119.5,37.036 119.5,34L119.5,6Z" style="fill:rgb(61,219,134);stroke:rgb(61,219,134);stroke-width:1px;"/>
    <path d="M36,26.404L43.461,26.404L43.461,27.185L39.915,27.185L39.915,28.288C40.423,28.523 40.934,28.783 41.449,29.066C41.964,29.35 42.485,29.654 43.011,29.979L42.552,30.695C42.01,30.35 41.523,30.045 41.091,29.781C40.659,29.518 40.267,29.299 39.914,29.124L39.914,33.732L39.124,33.732L39.124,27.185L36,27.185L36,26.404Z" style="fill:white;fill-rule:nonzero;"/>
    <path d="M45.527,26.639L47.089,26.639L47.089,26.009L47.861,26.009L47.861,26.639L49.309,26.639L49.309,27.356L47.861,27.356L47.861,27.966L49.686,27.966C49.673,27.666 49.661,27.353 49.649,27.026C49.636,26.7 49.63,26.358 49.63,26L50.398,26C50.398,26.364 50.403,26.708 50.414,27.031C50.424,27.355 50.436,27.666 50.448,27.966L52.479,27.966L52.479,28.692L50.485,28.692C50.509,29.029 50.541,29.337 50.579,29.615C50.617,29.895 50.652,30.144 50.683,30.364C50.706,30.437 50.725,30.512 50.738,30.588C50.75,30.659 50.762,30.732 50.774,30.806C50.904,30.526 51.018,30.239 51.114,29.946C51.215,29.644 51.307,29.319 51.39,28.973L52.093,29.294C51.882,30.197 51.543,31.065 51.087,31.872C51.111,31.933 51.138,31.995 51.167,32.058C51.196,32.12 51.226,32.181 51.257,32.239C51.45,32.622 51.603,32.814 51.716,32.814C51.793,32.814 51.882,32.411 51.983,31.606L52.658,31.964C52.465,33.082 52.181,33.641 51.804,33.641C51.519,33.641 51.195,33.389 50.834,32.887C50.76,32.774 50.697,32.654 50.646,32.528C50.256,33.011 49.781,33.419 49.244,33.732L48.808,33.103C49.412,32.766 49.924,32.284 50.296,31.701C50.241,31.52 50.185,31.335 50.129,31.144C50.072,30.952 50.024,30.752 49.984,30.544C49.851,29.934 49.764,29.315 49.722,28.692L45.091,28.692L45.091,27.966L47.089,27.966L47.089,27.356L45.527,27.356L45.527,26.639ZM49.309,31.927L49.309,32.616C49.106,32.641 48.902,32.664 48.695,32.685C48.489,32.706 48.279,32.73 48.068,32.754L48.068,33.705L47.296,33.705L47.296,32.851C47.005,32.875 46.71,32.898 46.409,32.919C46.109,32.941 45.804,32.969 45.495,33.002L45.394,32.258C45.734,32.245 46.06,32.228 46.373,32.205C46.685,32.182 46.993,32.161 47.296,32.143L47.296,31.523L45.762,31.523L45.601,30.893C45.815,30.616 46.002,30.319 46.157,30.006L45.348,30.006L45.348,29.303L46.464,29.303C46.504,29.216 46.536,29.126 46.561,29.034C46.586,28.944 46.616,28.849 46.653,28.747L47.406,28.881C47.376,28.966 47.352,29.042 47.333,29.108C47.314,29.176 47.288,29.241 47.255,29.303L49.345,29.303L49.345,30.006L46.975,30.006C46.892,30.172 46.809,30.325 46.724,30.466C46.64,30.607 46.561,30.743 46.487,30.875L47.296,30.875L47.296,30.318L48.068,30.318L48.068,30.875L49.263,30.875L49.263,31.523L48.068,31.523L48.068,32.06C48.279,32.042 48.489,32.02 48.695,31.998C48.902,31.975 49.106,31.951 49.309,31.927ZM50.655,26.468L51.238,26.073C51.59,26.464 51.917,26.877 52.217,27.31L51.625,27.731C51.505,27.542 51.365,27.341 51.204,27.128C51.043,26.915 50.86,26.695 50.655,26.468Z" style="fill:white;fill-rule:nonzero;"/>
    <g transform="matrix(1,0,0,1,8,7.99967)">
        <path d="M17.523,15.341C16.972,15.341 16.524,14.893 16.524,14.342C16.524,13.791 16.972,13.342 17.523,13.342C18.074,13.342 18.522,13.791 18.522,14.342C18.522,14.893 18.074,15.341 17.523,15.341M6.477,15.341C5.926,15.341 5.478,14.893 5.478,14.342C5.478,13.791 5.926,13.342 6.477,13.342C7.028,13.342 7.476,13.791 7.476,14.342C7.476,14.893 7.028,15.341 6.477,15.341M17.882,9.321L19.879,5.862C19.992,5.665 19.924,5.409 19.727,5.295C19.529,5.181 19.273,5.25 19.159,5.447L17.137,8.95C15.59,8.244 13.853,7.851 12,7.851C10.147,7.851 8.41,8.244 6.863,8.95L4.841,5.447C4.727,5.249 4.471,5.181 4.273,5.295C4.076,5.409 4.007,5.665 4.121,5.862L6.119,9.321C2.689,11.187 0.343,14.659 0,18.761L24,18.761C23.657,14.659 21.311,11.187 17.882,9.321" style="fill:white;fill-rule:nonzero;"/>
    </g>
    <g transform="matrix(1,0,0,1,-9.53516,9.40344)">
        <text x="45.528px" y="12.711px" style="font-family:'SFProText-Medium', 'SF Pro Text';font-weight:500;font-size:16px;fill:white;">Andr<tspan x="82.457px " y="12.711px ">o</tspan>id</text>
    </g>
</svg>
