<svg width="120" height="40" viewBox="0 0 120 40" fill="none" xmlns="http://www.w3.org/2000/svg">
<rect x="0.5" y="0.5" width="119" height="39" rx="5.5" fill="black"/>
<rect x="0.5" y="0.5" width="119" height="39" rx="5.5" stroke="#A6A6A6"/>
<path d="M24.7045 20.7631C24.7166 19.8432 24.9669 18.9413 25.4321 18.1412C25.8972 17.3411 26.5621 16.6688 27.3648 16.187C26.8548 15.476 26.1821 14.8908 25.4 14.478C24.6178 14.0652 23.7479 13.8361 22.8592 13.809C20.9635 13.6147 19.1258 14.9164 18.1598 14.9164C17.1751 14.9164 15.6878 13.8283 14.0862 13.8604C13.0502 13.8931 12.0406 14.1872 11.1557 14.7141C10.2708 15.241 9.54075 15.9827 9.03674 16.8669C6.85352 20.5573 8.48201 25.9809 10.5734 28.964C11.6197 30.4247 12.8426 32.0564 14.4428 31.9985C16.0086 31.9351 16.5934 31.0237 18.4835 31.0237C20.3561 31.0237 20.9048 31.9985 22.5374 31.9617C24.2176 31.9351 25.2762 30.4945 26.2859 29.02C27.0377 27.9792 27.6162 26.8288 28 25.6116C27.0238 25.2085 26.1908 24.5338 25.6048 23.6716C25.0187 22.8094 24.7056 21.7979 24.7045 20.7631Z" fill="white"/>
<path d="M21.6208 11.8471C22.5369 10.7734 22.9883 9.39335 22.879 8C21.4794 8.14352 20.1865 8.7966 19.258 9.82911C18.804 10.3335 18.4563 10.9203 18.2348 11.556C18.0132 12.1917 17.9222 12.8638 17.9669 13.5338C18.6669 13.5408 19.3595 13.3927 19.9924 13.1005C20.6254 12.8084 21.1821 12.3798 21.6208 11.8471Z" fill="white"/>
<path d="M38.2061 21.5H36.1758L40.3066 9.50293H42.5391L46.6611 21.5H44.5518L43.4883 18.1777H39.2783L38.2061 21.5ZM41.4316 11.5771H41.3525L39.7266 16.6484H43.04L41.4316 11.5771ZM52.2644 21.6318C51.0603 21.6318 50.1462 21.0605 49.654 20.208H49.5837V24.585H47.6325V12.21H49.531V13.5723H49.6013C50.1111 12.6846 51.0603 12.0869 52.3083 12.0869C54.3913 12.0869 55.8767 13.6602 55.8767 16.4375V17.2637C55.8767 20.0234 54.4089 21.6318 52.2644 21.6318ZM51.8161 20.0234C53.0554 20.0234 53.8991 19.0303 53.8991 17.1582V16.5078C53.8991 14.7061 53.1081 13.6777 51.781 13.6777C50.4187 13.6777 49.5661 14.7852 49.5661 16.499V17.1582C49.5661 18.916 50.4275 20.0234 51.8161 20.0234ZM62.183 21.6318C60.9789 21.6318 60.0649 21.0605 59.5727 20.208H59.5024V24.585H57.5512V12.21H59.4496V13.5723H59.52C60.0297 12.6846 60.9789 12.0869 62.227 12.0869C64.31 12.0869 65.7954 13.6602 65.7954 16.4375V17.2637C65.7954 20.0234 64.3276 21.6318 62.183 21.6318ZM61.7348 20.0234C62.9741 20.0234 63.8178 19.0303 63.8178 17.1582V16.5078C63.8178 14.7061 63.0268 13.6777 61.6996 13.6777C60.3373 13.6777 59.4848 14.7852 59.4848 16.499V17.1582C59.4848 18.916 60.3461 20.0234 61.7348 20.0234ZM69.8387 18.1689H71.7899C71.8778 19.2061 72.7919 20.0938 74.4882 20.0938C76.0438 20.0938 76.9667 19.3643 76.9667 18.2305C76.9667 17.3164 76.3514 16.8242 75.0682 16.5166L73.0995 16.0244C71.5526 15.6641 70.1639 14.7412 70.1639 12.79C70.1639 10.4961 72.1679 9.23926 74.497 9.23926C76.8261 9.23926 78.7684 10.4961 78.8124 12.7373H76.8964C76.8085 11.7178 76.0262 10.874 74.4706 10.874C73.0995 10.874 72.1679 11.5244 72.1679 12.6406C72.1679 13.4229 72.7128 13.9854 73.829 14.2402L75.7889 14.7236C77.5907 15.1631 78.9618 16.0156 78.9618 18.0547C78.9618 20.4102 77.0546 21.7373 74.3387 21.7373C70.9989 21.7373 69.8827 19.7861 69.8387 18.1689ZM81.3395 12.21V9.95117H83.2555V12.21H85.066V13.7744H83.2555V18.7314C83.2555 19.7422 83.6334 20.0234 84.6793 20.0234C84.8463 20.0234 85.0045 20.0234 85.1188 20.0059V21.5C84.9605 21.5264 84.5914 21.5615 84.1959 21.5615C81.9371 21.5615 81.3131 20.7529 81.3131 18.8896V13.7744H80.0299V12.21H81.3395ZM90.3353 12.0518C93.0071 12.0518 94.4573 13.9326 94.4573 16.4639V17.2109C94.4573 19.8301 93.0159 21.6582 90.3353 21.6582C87.6546 21.6582 86.1956 19.8301 86.1956 17.2109V16.4639C86.1956 13.9414 87.6634 12.0518 90.3353 12.0518ZM90.3353 13.6162C88.8851 13.6162 88.1644 14.8027 88.1644 16.4902V17.2021C88.1644 18.8633 88.8763 20.085 90.3353 20.085C91.7943 20.085 92.4974 18.8721 92.4974 17.2021V16.4902C92.4974 14.7939 91.7855 13.6162 90.3353 13.6162ZM96.1055 21.5V12.21H98.0567V13.4316H98.127C98.3643 12.8516 99.0586 12.0781 100.351 12.0781C100.606 12.0781 100.825 12.0957 101.01 12.1309V13.8535C100.843 13.8096 100.5 13.7832 100.175 13.7832C98.6104 13.7832 98.083 14.75 98.083 15.998V21.5H96.1055ZM105.743 21.6582C103.256 21.6582 101.674 20.0146 101.674 17.2637V16.3232C101.674 13.7305 103.22 12.0518 105.664 12.0518C108.142 12.0518 109.636 13.792 109.636 16.4111V17.2988H103.598V17.5186C103.598 19.083 104.442 20.1201 105.769 20.1201C106.762 20.1201 107.439 19.6279 107.677 18.8281H109.531C109.25 20.3311 108.037 21.6582 105.743 21.6582ZM103.598 15.9365H107.729V15.9189C107.729 14.6006 106.912 13.5635 105.673 13.5635C104.416 13.5635 103.598 14.6006 103.598 15.9189V15.9365Z" fill="white"/>
<path d="M36 26.3584H43.4614V27.1386H39.9146V28.2422C40.4229 28.4775 40.9344 28.7369 41.4492 29.0205C41.9639 29.3037 42.4846 29.6077 43.0112 29.9326L42.5518 30.6494C42.0098 30.3037 41.5228 29.999 41.0908 29.7353C40.6587 29.4717 40.2666 29.2526 39.9145 29.0781V33.6865H39.124V27.1387H36L36 26.3584Z" fill="white"/>
<path d="M45.5733 26.4404H47.0113V26H47.774V26.4404H49.1661V27.0654H47.7739V27.5156H49.75C49.7314 27.2832 49.7222 27.0397 49.7222 26.7852V26H50.4668C50.4668 26.2695 50.4697 26.5322 50.4756 26.79C50.4819 27.0468 50.4912 27.2887 50.5034 27.5156H52.5156V28.1728H50.5308C50.5493 28.6386 50.5776 29.0498 50.6158 29.4062C50.6543 29.7636 50.6978 30.0732 50.7471 30.3369C50.7593 30.4199 50.772 30.4941 50.7862 30.5595C50.7998 30.6259 50.816 30.6923 50.834 30.7597C50.9761 30.4306 51.0996 30.0938 51.2041 29.7509C51.3189 29.3715 51.4117 28.9858 51.482 28.5957L52.1573 28.8984C51.959 29.9169 51.6106 30.9003 51.1236 31.8164C51.1705 31.9477 51.2241 32.0764 51.2842 32.2021C51.459 32.5791 51.6062 32.7676 51.7256 32.7676C51.8203 32.7676 51.9183 32.3402 52.0196 31.4853L52.6675 31.8438C52.4746 33.0537 52.1958 33.6589 51.8311 33.6592C51.5616 33.6592 51.2538 33.4049 50.9077 32.8965C50.8141 32.773 50.7383 32.6369 50.6827 32.4922C50.3949 32.8684 50.0454 33.193 49.649 33.4522L49.2906 32.9473H47.7466V33.6495H47.0113V32.9473H45.1323V32.3037H47.0113V31.9454H45.5454V29.5195H47.0113V29.1885H45.2423V28.5957H47.0113V28.2784H47.7466V28.5957H49.5064V29.1885H47.7466V29.5196H49.2441V31.9454H47.7466V32.3038H49.4971V32.6436C49.8306 32.3694 50.1162 32.0417 50.3423 31.6739C50.2876 31.5059 50.2393 31.3301 50.1978 31.1485C50.1562 30.9659 50.1141 30.7705 50.0713 30.5625C49.9103 29.775 49.812 28.976 49.7773 28.1729H45.0542V27.5157H47.0113V27.0655H45.5733V26.4404ZM46.2027 30.4707H47.0664V30.0566H46.2027V30.4707ZM47.0664 31.3935V30.957H46.2027V31.3935H47.0664ZM47.71 30.0566V30.4707H48.5737V30.0566H47.71ZM48.5737 31.3935V30.957H47.71V31.3935H48.5737ZM50.7837 26.376L51.3394 26.0176C51.6669 26.3485 51.9638 26.7084 52.2266 27.0928L51.6519 27.5068C51.545 27.335 51.4209 27.1562 51.2798 26.9687C51.1387 26.7822 50.9734 26.5846 50.7837 26.376Z" fill="white"/>
</svg>
