<svg width="120" height="40" viewBox="0 0 120 40" fill="none" xmlns="http://www.w3.org/2000/svg">
<rect x="0.5" y="0.5" width="119" height="39" rx="5.5" fill="black"/>
<rect x="0.5" y="0.5" width="119" height="39" rx="5.5" stroke="#A6A6A6"/>
<path d="M24.7045 20.7631C24.7166 19.8432 24.9669 18.9413 25.4321 18.1412C25.8972 17.3411 26.5621 16.6688 27.3648 16.187C26.8548 15.476 26.1821 14.8908 25.4 14.478C24.6178 14.0652 23.7479 13.8361 22.8592 13.809C20.9635 13.6147 19.1258 14.9164 18.1598 14.9164C17.1751 14.9164 15.6878 13.8283 14.0862 13.8604C13.0502 13.8931 12.0406 14.1872 11.1557 14.7141C10.2708 15.241 9.54075 15.9827 9.03674 16.8669C6.85352 20.5573 8.48201 25.9809 10.5734 28.964C11.6197 30.4247 12.8426 32.0564 14.4428 31.9985C16.0086 31.9351 16.5934 31.0237 18.4835 31.0237C20.3561 31.0237 20.9048 31.9985 22.5374 31.9617C24.2176 31.9351 25.2762 30.4945 26.2859 29.02C27.0377 27.9792 27.6162 26.8288 28 25.6116C27.0238 25.2085 26.1908 24.5338 25.6048 23.6716C25.0187 22.8094 24.7056 21.7979 24.7045 20.7631Z" fill="white"/>
<path d="M21.6208 11.8471C22.5369 10.7734 22.9883 9.39335 22.879 8C21.4794 8.14352 20.1865 8.7966 19.258 9.82911C18.804 10.3335 18.4563 10.9203 18.2348 11.556C18.0132 12.1917 17.9222 12.8638 17.9669 13.5338C18.6669 13.5408 19.3595 13.3927 19.9924 13.1005C20.6254 12.8084 21.1821 12.3798 21.6208 11.8471Z" fill="white"/>
<path d="M38.2061 21.5H36.1758L40.3066 9.50293H42.5391L46.6611 21.5H44.5518L43.4883 18.1777H39.2783L38.2061 21.5ZM41.4316 11.5771H41.3525L39.7266 16.6484H43.04L41.4316 11.5771ZM52.2644 21.6318C51.0603 21.6318 50.1462 21.0605 49.654 20.208H49.5837V24.585H47.6325V12.21H49.531V13.5723H49.6013C50.1111 12.6846 51.0603 12.0869 52.3083 12.0869C54.3913 12.0869 55.8767 13.6602 55.8767 16.4375V17.2637C55.8767 20.0234 54.4089 21.6318 52.2644 21.6318ZM51.8161 20.0234C53.0554 20.0234 53.8991 19.0303 53.8991 17.1582V16.5078C53.8991 14.7061 53.1081 13.6777 51.781 13.6777C50.4187 13.6777 49.5661 14.7852 49.5661 16.499V17.1582C49.5661 18.916 50.4275 20.0234 51.8161 20.0234ZM62.183 21.6318C60.9789 21.6318 60.0649 21.0605 59.5727 20.208H59.5024V24.585H57.5512V12.21H59.4496V13.5723H59.52C60.0297 12.6846 60.9789 12.0869 62.227 12.0869C64.31 12.0869 65.7954 13.6602 65.7954 16.4375V17.2637C65.7954 20.0234 64.3276 21.6318 62.183 21.6318ZM61.7348 20.0234C62.9741 20.0234 63.8178 19.0303 63.8178 17.1582V16.5078C63.8178 14.7061 63.0268 13.6777 61.6996 13.6777C60.3373 13.6777 59.4848 14.7852 59.4848 16.499V17.1582C59.4848 18.916 60.3461 20.0234 61.7348 20.0234ZM69.8387 18.1689H71.7899C71.8778 19.2061 72.7919 20.0938 74.4882 20.0938C76.0438 20.0938 76.9667 19.3643 76.9667 18.2305C76.9667 17.3164 76.3514 16.8242 75.0682 16.5166L73.0995 16.0244C71.5526 15.6641 70.1639 14.7412 70.1639 12.79C70.1639 10.4961 72.1679 9.23926 74.497 9.23926C76.8261 9.23926 78.7684 10.4961 78.8124 12.7373H76.8964C76.8085 11.7178 76.0262 10.874 74.4706 10.874C73.0995 10.874 72.1679 11.5244 72.1679 12.6406C72.1679 13.4229 72.7128 13.9854 73.829 14.2402L75.7889 14.7236C77.5907 15.1631 78.9618 16.0156 78.9618 18.0547C78.9618 20.4102 77.0546 21.7373 74.3387 21.7373C70.9989 21.7373 69.8827 19.7861 69.8387 18.1689ZM81.3395 12.21V9.95117H83.2555V12.21H85.066V13.7744H83.2555V18.7314C83.2555 19.7422 83.6334 20.0234 84.6793 20.0234C84.8463 20.0234 85.0045 20.0234 85.1188 20.0059V21.5C84.9605 21.5264 84.5914 21.5615 84.1959 21.5615C81.9371 21.5615 81.3131 20.7529 81.3131 18.8896V13.7744H80.0299V12.21H81.3395ZM90.3353 12.0518C93.0071 12.0518 94.4573 13.9326 94.4573 16.4639V17.2109C94.4573 19.8301 93.0159 21.6582 90.3353 21.6582C87.6546 21.6582 86.1956 19.8301 86.1956 17.2109V16.4639C86.1956 13.9414 87.6634 12.0518 90.3353 12.0518ZM90.3353 13.6162C88.8851 13.6162 88.1644 14.8027 88.1644 16.4902V17.2021C88.1644 18.8633 88.8763 20.085 90.3353 20.085C91.7943 20.085 92.4974 18.8721 92.4974 17.2021V16.4902C92.4974 14.7939 91.7855 13.6162 90.3353 13.6162ZM96.1055 21.5V12.21H98.0567V13.4316H98.127C98.3643 12.8516 99.0586 12.0781 100.351 12.0781C100.606 12.0781 100.825 12.0957 101.01 12.1309V13.8535C100.843 13.8096 100.5 13.7832 100.175 13.7832C98.6104 13.7832 98.083 14.75 98.083 15.998V21.5H96.1055ZM105.743 21.6582C103.256 21.6582 101.674 20.0146 101.674 17.2637V16.3232C101.674 13.7305 103.22 12.0518 105.664 12.0518C108.142 12.0518 109.636 13.792 109.636 16.4111V17.2988H103.598V17.5186C103.598 19.083 104.442 20.1201 105.769 20.1201C106.762 20.1201 107.439 19.6279 107.677 18.8281H109.531C109.25 20.3311 108.037 21.6582 105.743 21.6582ZM103.598 15.9365H107.729V15.9189C107.729 14.6006 106.912 13.5635 105.673 13.5635C104.416 13.5635 103.598 14.6006 103.598 15.9189V15.9365Z" fill="white"/>
<path d="M36 26.4043H43.4614V27.1845H39.9146V28.2881C40.4229 28.5234 40.9344 28.7828 41.4492 29.0664C41.9639 29.3496 42.4846 29.6536 43.0112 29.9785L42.5518 30.6953C42.0098 30.3496 41.5228 30.0449 41.0908 29.7812C40.6587 29.5176 40.2666 29.2985 39.9145 29.124V33.7324H39.124V27.1846H36L36 26.4043Z" fill="white"/>
<path d="M45.5273 26.6387H47.0893V26.0088H47.8613V26.6387H49.3086V27.3555H47.8613V27.9658H49.6856C49.6733 27.666 49.6611 27.3529 49.6489 27.0264C49.6363 26.7002 49.6301 26.3581 49.6304 26H50.3975C50.3975 26.3643 50.4028 26.708 50.4136 27.0312C50.4243 27.3545 50.4359 27.666 50.4482 27.9658H52.479V28.6924H50.4849C50.5093 29.0293 50.5407 29.3369 50.5791 29.6152C50.6172 29.8945 50.6519 30.1435 50.6826 30.3642C50.7062 30.4374 50.7246 30.5121 50.7378 30.5879C50.75 30.6592 50.7622 30.7324 50.7744 30.8056C50.904 30.5259 51.0175 30.239 51.1143 29.9463C51.2153 29.6435 51.3073 29.319 51.3901 28.9726L52.0933 29.2939C51.8823 30.1968 51.5434 31.065 51.0869 31.872C51.1113 31.9326 51.1382 31.9951 51.1675 32.0576C51.1963 32.1201 51.2261 32.1806 51.2569 32.2392C51.4497 32.6221 51.6029 32.8135 51.7163 32.8135C51.793 32.8135 51.8819 32.4108 51.9829 31.6055L52.6582 31.9639C52.4653 33.082 52.1805 33.6409 51.8037 33.6406C51.5186 33.6406 51.1953 33.3893 50.834 32.8867C50.7601 32.7735 50.6972 32.6535 50.646 32.5283C50.2556 33.0114 49.7806 33.4194 49.2441 33.7324L48.8081 33.1035C49.4124 32.7661 49.9237 32.2843 50.2964 31.7012C50.2412 31.5205 50.1854 31.3346 50.1289 31.1435C50.0723 30.9521 50.0239 30.7523 49.9839 30.5439C49.851 29.9341 49.7635 29.3152 49.7222 28.6924H45.0908V27.9658H47.0894V27.3555H45.5274L45.5273 26.6387ZM49.3086 31.9268V32.6163C49.1064 32.6407 48.902 32.6635 48.6953 32.6846C48.4888 32.7061 48.2793 32.7295 48.0683 32.754V33.7051H47.2963V32.8506C47.0053 32.8751 46.7096 32.8978 46.4091 32.919C46.1093 32.9405 45.8041 32.9688 45.495 33.002L45.394 32.2579C45.7338 32.2452 46.06 32.2276 46.3725 32.2051C46.685 32.1817 46.9929 32.1609 47.2963 32.1426V31.5225H45.7617L45.6006 30.8926C45.8153 30.6164 46.0016 30.3193 46.1567 30.0059H45.3481V29.3027H46.4644C46.5039 29.216 46.5363 29.1262 46.561 29.0342C46.5855 28.9443 46.6161 28.8486 46.6528 28.7471L47.4063 28.8809C47.376 28.9659 47.3516 29.042 47.333 29.1084C47.3139 29.1758 47.2877 29.2409 47.2549 29.3027H49.3452V30.0059H46.9746C46.8921 30.1719 46.8086 30.3252 46.7241 30.4659C46.6396 30.6065 46.5607 30.7429 46.4873 30.8751H47.2964V30.3184H48.0684V30.875H49.2627V31.5225H48.0684V32.0596C48.2793 32.042 48.4888 32.0205 48.6954 31.998C48.9019 31.9746 49.1063 31.9508 49.3086 31.9268ZM50.6548 26.4678L51.2383 26.0732C51.5902 26.4644 51.9172 26.8773 52.2173 27.3096L51.6245 27.7314C51.5049 27.542 51.3647 27.3408 51.2041 27.1279C51.043 26.915 50.8599 26.695 50.6548 26.4678Z" fill="white"/>
</svg>
