<svg width="120" height="40" viewBox="0 0 120 40" fill="none" xmlns="http://www.w3.org/2000/svg">
<rect x="0.5" y="0.5" width="119" height="39" rx="5.5" fill="black"/>
<rect x="0.5" y="0.5" width="119" height="39" rx="5.5" stroke="#A6A6A6"/>
<path d="M17.8048 19.4617L8.0896 30.0059C8.09051 30.0078 8.09051 30.0106 8.09142 30.0125C8.38981 31.1574 9.41179 32 10.6254 32C11.1108 32 11.5662 31.8656 11.9567 31.6305L11.9877 31.6118L22.9229 25.1593L17.8048 19.4617Z" fill="#EA4335"/>
<path d="M27.6331 17.6662L27.624 17.6597L22.9028 14.8612L17.5839 19.7013L22.9219 25.1582L27.6176 22.3878C28.4406 21.9324 29 21.045 29 20.0223C29 19.0052 28.4489 18.1225 27.6331 17.6662Z" fill="#FBBC04"/>
<path d="M8.08942 9.99331C8.03102 10.2135 8 10.4449 8 10.6838V29.3163C8 29.5552 8.03102 29.7866 8.09034 30.0059L18.1386 19.7313L8.08942 9.99331Z" fill="#4285F4"/>
<path d="M17.8766 19.9999L22.9044 14.8594L11.9819 8.38351C11.585 8.13996 11.1214 8 10.626 8C9.41237 8 8.38856 8.84447 8.09018 9.99034C8.09018 9.99127 8.08926 9.9922 8.08926 9.99314L17.8766 19.9999Z" fill="#34A853"/>
<path d="M93.5181 17.4097H95.1469V6.39814H93.5181V17.4097ZM108.189 10.3646L106.322 15.1388H106.266L104.328 10.3646H102.573L105.479 17.0371L103.823 20.749H105.521L110 10.3646H108.189ZM98.9519 16.1588C98.4177 16.1588 97.6739 15.8902 97.6739 15.2234C97.6739 14.3742 98.6001 14.0483 99.4005 14.0483C100.116 14.0483 100.454 14.2042 100.889 14.4165C100.762 15.4365 99.892 16.1588 98.9519 16.1588ZM99.1483 10.1241C97.969 10.1241 96.7469 10.6482 96.2424 11.8101L97.6879 12.4188C97.9969 11.8101 98.5721 11.611 99.1762 11.611C100.019 11.611 100.875 12.121 100.889 13.0283V13.1411C100.594 12.971 99.9627 12.7165 99.1902 12.7165C97.632 12.7165 96.0451 13.5806 96.0451 15.1952C96.0451 16.6689 97.323 17.6184 98.7546 17.6184C99.8501 17.6184 100.454 17.1225 100.833 16.5411H100.889V17.3912H102.461V13.1692C102.461 11.2146 101.015 10.1241 99.1483 10.1241ZM89.0821 11.7053H86.7655V7.93082H89.0821C90.2998 7.93082 90.9911 8.94821 90.9911 9.81761C90.9911 10.6711 90.2998 11.7053 89.0821 11.7053ZM89.0402 6.39814H85.1375V17.4097H86.7655V13.2379H89.0402C90.8453 13.2379 92.6199 11.9184 92.6199 9.81761C92.6199 7.71678 90.8453 6.39814 89.0402 6.39814ZM67.7583 16.1606C66.6332 16.1606 65.6913 15.2102 65.6913 13.9047C65.6913 12.5852 66.6332 11.6198 67.7583 11.6198C68.8695 11.6198 69.7406 12.5852 69.7406 13.9047C69.7406 15.2102 68.8695 16.1606 67.7583 16.1606ZM69.6289 10.9812H69.5722C69.2064 10.5417 68.5038 10.1444 67.6178 10.1444C65.7611 10.1444 64.0599 11.7898 64.0599 13.9047C64.0599 16.0047 65.7611 17.6369 67.6178 17.6369C68.5038 17.6369 69.2064 17.2396 69.5722 16.7851H69.6289V17.3251C69.6289 18.7582 68.8695 19.5246 67.6457 19.5246C66.6471 19.5246 66.0282 18.8005 65.7751 18.1901L64.3549 18.7864C64.7626 19.78 65.8458 21 67.6457 21C69.5582 21 71.1757 19.8646 71.1757 17.0978V10.3708H69.6289V10.9812ZM72.3008 17.4097H73.9323V6.39726H72.3008V17.4097ZM76.3362 13.777C76.2943 12.3298 77.4474 11.5916 78.2766 11.5916C78.9243 11.5916 79.4725 11.9176 79.6549 12.3862L76.3362 13.777ZM81.3989 12.528C81.0899 11.6912 80.1472 10.1444 78.2208 10.1444C76.3083 10.1444 74.7196 11.6621 74.7196 13.8907C74.7196 15.9906 76.2943 17.6369 78.4032 17.6369C80.1053 17.6369 81.0899 16.5869 81.4976 15.9765L80.2319 15.1247C79.8103 15.7493 79.2333 16.1606 78.4032 16.1606C77.5739 16.1606 76.983 15.7774 76.6033 15.0261L81.5674 12.9534L81.3989 12.528ZM41.8501 11.2939V12.883H45.6184C45.5058 13.777 45.2107 14.4297 44.7612 14.8834C44.2121 15.4374 43.3541 16.0479 41.8501 16.0479C39.5291 16.0479 37.7152 14.1602 37.7152 11.8189C37.7152 9.47672 39.5291 7.58993 41.8501 7.58993C43.1018 7.58993 44.0157 8.08673 44.6905 8.72535L45.8017 7.60403C44.8589 6.69587 43.6081 6 41.8501 6C38.6719 6 36 8.61172 36 11.8189C36 15.0261 38.6719 17.6369 41.8501 17.6369C43.5653 17.6369 44.8589 17.0688 45.8715 16.0047C46.9129 14.9547 47.2358 13.4793 47.2358 12.2866C47.2358 11.9176 47.2079 11.5775 47.1512 11.2939H41.8501ZM51.5208 16.1606C50.3957 16.1606 49.425 15.2243 49.425 13.8907C49.425 12.5421 50.3957 11.6198 51.5208 11.6198C52.6451 11.6198 53.6158 12.5421 53.6158 13.8907C53.6158 15.2243 52.6451 16.1606 51.5208 16.1606ZM51.5208 10.1444C49.4669 10.1444 47.7936 11.7194 47.7936 13.8907C47.7936 16.0479 49.4669 17.6369 51.5208 17.6369C53.5739 17.6369 55.2472 16.0479 55.2472 13.8907C55.2472 11.7194 53.5739 10.1444 51.5208 10.1444ZM59.65 16.1606C58.5249 16.1606 57.5542 15.2243 57.5542 13.8907C57.5542 12.5421 58.5249 11.6198 59.65 11.6198C60.7752 11.6198 61.745 12.5421 61.745 13.8907C61.745 15.2243 60.7752 16.1606 59.65 16.1606ZM59.65 10.1444C57.597 10.1444 55.9237 11.7194 55.9237 13.8907C55.9237 16.0479 57.597 17.6369 59.65 17.6369C61.7031 17.6369 63.3764 16.0479 63.3764 13.8907C63.3764 11.7194 61.7031 10.1444 59.65 10.1444Z" fill="white"/>
<path d="M36.744 26.728H43.272V27.488H36.744V26.728ZM36.392 31.592H43.608V32.352H36.392V31.592ZM37.808 28.016L38.56 27.832C38.88 28.888 39.2 30.208 39.336 31.104L38.528 31.312C38.416 30.424 38.096 29.048 37.808 28.016ZM41.44 27.848L42.288 28C41.936 29.328 41.424 30.92 40.992 31.912L40.248 31.736C40.688 30.736 41.184 29.056 41.44 27.848ZM39.344 25.376L40.088 25.184C40.256 25.592 40.432 26.12 40.52 26.464L39.736 26.696C39.664 26.344 39.496 25.792 39.344 25.376ZM45.064 27.224H47.536V27.904H45.064V27.224ZM45.048 25.664H48.016V29.528H45.048V28.848H47.256V26.344H45.048V25.664ZM44.752 32.464L44.68 31.784L44.992 31.504L47.304 30.792C47.36 31 47.456 31.272 47.52 31.432C45.272 32.192 44.952 32.312 44.752 32.464ZM46.464 30.16L47.112 29.848C47.52 30.496 48.016 31.376 48.232 31.92L47.536 32.296C47.336 31.744 46.864 30.84 46.464 30.16ZM44.752 32.464C44.704 32.248 44.568 31.88 44.44 31.696C44.6 31.616 44.8 31.464 44.8 31.16V25.664H45.568V31.84C45.568 31.84 44.752 32.168 44.752 32.464ZM50.616 25.72H51.36V30.336C51.36 30.712 51.296 30.92 51.056 31.048C50.816 31.168 50.448 31.176 49.896 31.176C49.872 30.968 49.776 30.656 49.68 30.456C50.032 30.472 50.376 30.472 50.48 30.464C50.584 30.456 50.616 30.432 50.616 30.328V25.72ZM48.624 25.72H51V26.416H49.376V32.68H48.624V25.72ZM52.424 25.84H59.576V26.6H52.424V25.84ZM55.432 26.48H56.24V32.664H55.432V26.48ZM55.864 28.4L56.376 27.808C57.296 28.256 58.552 28.968 59.184 29.464L58.632 30.152C58.04 29.648 56.808 28.896 55.864 28.4ZM65.832 25.696L66.376 25.32C66.768 25.648 67.232 26.104 67.456 26.424L66.872 26.832C66.672 26.512 66.216 26.032 65.832 25.696ZM60.4 26.992H67.624V27.624H60.4V26.992ZM60.76 25.848H64.24V26.44H60.76V25.848ZM60.616 28.072H64.392V28.624H60.616V28.072ZM60.504 31.352H64.4V31.92H60.504V31.352ZM62.144 25.248H62.864V27.552H62.144V25.248ZM61.336 30.176V30.568H63.672V30.176H61.336ZM61.336 29.408V29.792H63.672V29.408H61.336ZM60.784 29H64.24V30.968H60.784V29ZM62.208 29.248H62.776V30.824H62.832V32.68H62.16V30.824H62.208V29.248ZM62.152 27.608H62.84V29.144H62.152V27.608ZM64.656 25.256H65.416C65.36 28.904 65.912 31.936 66.8 31.936C67 31.936 67.08 31.552 67.128 30.592C67.288 30.752 67.544 30.92 67.736 30.984C67.624 32.312 67.376 32.672 66.736 32.672C65.12 32.672 64.672 29.168 64.656 25.256ZM66.64 28.016L67.312 28.232C66.712 30.128 65.672 31.704 64.2 32.688C64.088 32.504 63.864 32.264 63.68 32.112C65.08 31.272 66.096 29.784 66.64 28.016Z" fill="white"/>
</svg>
